<mxfile host="app.diagrams.net" agent="Mozilla/5.0 (Windows NT 10.0; Win64; x64) AppleWebKit/537.36 (KHTML, like Gecko) Chrome/135.0.0.0 Safari/537.36 OPR/120.0.0.0" version="28.1.1">
  <diagram name="Page-1" id="_fgNbCBozK9R5fLy6JvO">
    <mxGraphModel dx="1317" dy="1103" grid="0" gridSize="10" guides="1" tooltips="1" connect="1" arrows="1" fold="1" page="0" pageScale="1" pageWidth="850" pageHeight="1100" background="light-dark(#0D1117,#0D1117)" math="0" shadow="0">
      <root>
        <mxCell id="0" />
        <mxCell id="1" parent="0" />
        <mxCell id="UJRjLYV5v_oAAFYebKkd-5" style="edgeStyle=orthogonalEdgeStyle;rounded=0;orthogonalLoop=1;jettySize=auto;html=1;entryX=0.5;entryY=0;entryDx=0;entryDy=0;strokeColor=#FFFFFF;" edge="1" parent="1" source="-oGY_kGoAMbRIR_1ziQC-6" target="UJRjLYV5v_oAAFYebKkd-4">
          <mxGeometry relative="1" as="geometry" />
        </mxCell>
        <mxCell id="-oGY_kGoAMbRIR_1ziQC-6" value="&lt;div&gt;void init8(void);&lt;/div&gt;" style="rounded=0;whiteSpace=wrap;html=1;fontSize=10;align=center;glass=0;shadow=0;strokeWidth=2;perimeterSpacing=0;strokeColor=#4C566A;fillColor=none;fontColor=#C9D1D9;verticalAlign=middle;spacingLeft=0;spacingTop=0;fontFamily=Helvetica;" parent="1" vertex="1">
          <mxGeometry x="210" width="110" height="55" as="geometry" />
        </mxCell>
        <mxCell id="UJRjLYV5v_oAAFYebKkd-3" style="edgeStyle=orthogonalEdgeStyle;rounded=0;orthogonalLoop=1;jettySize=auto;html=1;entryX=0.5;entryY=0;entryDx=0;entryDy=0;fontColor=light-dark(#ffffff, #ededed);strokeColor=#FFFFFF;" edge="1" parent="1" source="UJRjLYV5v_oAAFYebKkd-2" target="-oGY_kGoAMbRIR_1ziQC-6">
          <mxGeometry relative="1" as="geometry" />
        </mxCell>
        <mxCell id="UJRjLYV5v_oAAFYebKkd-2" value="&lt;div&gt;MCU reset&lt;/div&gt;" style="rounded=0;whiteSpace=wrap;html=1;fontSize=10;align=center;glass=0;shadow=0;strokeWidth=2;perimeterSpacing=0;strokeColor=#4C566A;fillColor=none;fontColor=#C9D1D9;verticalAlign=middle;spacingLeft=0;spacingTop=0;fontFamily=Helvetica;" vertex="1" parent="1">
          <mxGeometry x="210" y="-110" width="110" height="55" as="geometry" />
        </mxCell>
        <mxCell id="UJRjLYV5v_oAAFYebKkd-4" value="&lt;div&gt;1. initializeUART();&lt;/div&gt;&lt;div&gt;&lt;span style=&quot;background-color: transparent; color: light-dark(rgb(201, 209, 217), rgb(52, 59, 65));&quot;&gt;2. initializeIO();&lt;/span&gt;&lt;/div&gt;&lt;div&gt;&lt;span style=&quot;background-color: transparent; color: light-dark(rgb(201, 209, 217), rgb(52, 59, 65));&quot;&gt;3. initializeEEPROM();&lt;/span&gt;&lt;/div&gt;&lt;div&gt;&lt;span style=&quot;background-color: transparent; color: light-dark(rgb(201, 209, 217), rgb(52, 59, 65));&quot;&gt;4. initializeMemory();&lt;/span&gt;&lt;/div&gt;&lt;div&gt;&lt;span style=&quot;background-color: transparent; color: light-dark(rgb(201, 209, 217), rgb(52, 59, 65));&quot;&gt;5. initializeHardware();&lt;/span&gt;&lt;/div&gt;&lt;div&gt;6. initializeInterrupts();&lt;/div&gt;" style="rounded=0;whiteSpace=wrap;html=1;fontSize=10;align=left;glass=0;shadow=0;strokeWidth=2;perimeterSpacing=0;strokeColor=#4C566A;fillColor=none;fontColor=#C9D1D9;verticalAlign=middle;spacingLeft=0;spacingTop=0;fontFamily=Helvetica;" vertex="1" parent="1">
          <mxGeometry x="210" y="110" width="110" height="90" as="geometry" />
        </mxCell>
        <mxCell id="UJRjLYV5v_oAAFYebKkd-6" style="edgeStyle=orthogonalEdgeStyle;rounded=0;orthogonalLoop=1;jettySize=auto;html=1;entryX=0.5;entryY=0;entryDx=0;entryDy=0;strokeColor=#FFFFFF;" edge="1" parent="1">
          <mxGeometry relative="1" as="geometry">
            <mxPoint x="265" y="201" as="sourcePoint" />
            <mxPoint x="265" y="256" as="targetPoint" />
          </mxGeometry>
        </mxCell>
        <mxCell id="UJRjLYV5v_oAAFYebKkd-25" style="edgeStyle=orthogonalEdgeStyle;rounded=0;orthogonalLoop=1;jettySize=auto;html=1;entryX=0.5;entryY=0;entryDx=0;entryDy=0;strokeColor=#FFFFFF;exitX=0.5;exitY=1;exitDx=0;exitDy=0;" edge="1" parent="1" source="UJRjLYV5v_oAAFYebKkd-7" target="UJRjLYV5v_oAAFYebKkd-17">
          <mxGeometry relative="1" as="geometry">
            <mxPoint x="365.1944580078125" y="-42.873003278459805" as="targetPoint" />
          </mxGeometry>
        </mxCell>
        <mxCell id="UJRjLYV5v_oAAFYebKkd-7" value="&lt;div&gt;int main(void);&lt;/div&gt;" style="rounded=0;whiteSpace=wrap;html=1;fontSize=10;align=center;glass=0;shadow=0;strokeWidth=2;perimeterSpacing=0;strokeColor=#4C566A;fillColor=none;fontColor=#C9D1D9;verticalAlign=middle;spacingLeft=0;spacingTop=0;fontFamily=Helvetica;" vertex="1" parent="1">
          <mxGeometry x="210" y="257" width="110" height="55" as="geometry" />
        </mxCell>
        <mxCell id="UJRjLYV5v_oAAFYebKkd-12" style="rounded=0;orthogonalLoop=1;jettySize=auto;html=1;exitX=1;exitY=1;exitDx=0;exitDy=0;entryX=0.5;entryY=0;entryDx=0;entryDy=0;strokeColor=#FFFFFF;" edge="1" parent="1" source="UJRjLYV5v_oAAFYebKkd-8" target="UJRjLYV5v_oAAFYebKkd-11">
          <mxGeometry relative="1" as="geometry" />
        </mxCell>
        <mxCell id="UJRjLYV5v_oAAFYebKkd-13" style="rounded=0;orthogonalLoop=1;jettySize=auto;html=1;exitX=0;exitY=1;exitDx=0;exitDy=0;entryX=0.5;entryY=0;entryDx=0;entryDy=0;strokeColor=#FFFFFF;" edge="1" parent="1" source="UJRjLYV5v_oAAFYebKkd-8" target="UJRjLYV5v_oAAFYebKkd-10">
          <mxGeometry relative="1" as="geometry" />
        </mxCell>
        <mxCell id="UJRjLYV5v_oAAFYebKkd-8" value="&lt;span style=&quot;color: rgb(201, 209, 217); font-size: 10px;&quot;&gt;lastSystemError.confirmed&lt;/span&gt;" style="rhombus;whiteSpace=wrap;html=1;fillColor=none;strokeColor=light-dark(#4c566a, #ededed);" vertex="1" parent="1">
          <mxGeometry x="453" y="114" width="130" height="130" as="geometry" />
        </mxCell>
        <mxCell id="UJRjLYV5v_oAAFYebKkd-21" style="rounded=0;orthogonalLoop=1;jettySize=auto;html=1;entryX=0.5;entryY=0;entryDx=0;entryDy=0;strokeColor=#FFFFFF;" edge="1" parent="1" source="UJRjLYV5v_oAAFYebKkd-10" target="UJRjLYV5v_oAAFYebKkd-19">
          <mxGeometry relative="1" as="geometry" />
        </mxCell>
        <mxCell id="UJRjLYV5v_oAAFYebKkd-10" value="void normalStart();" style="rounded=0;whiteSpace=wrap;html=1;fontSize=10;align=center;glass=0;shadow=0;strokeWidth=2;perimeterSpacing=0;strokeColor=#4C566A;fillColor=none;fontColor=#C9D1D9;verticalAlign=middle;spacingLeft=0;spacingTop=0;fontFamily=Helvetica;" vertex="1" parent="1">
          <mxGeometry x="388" y="257" width="110" height="55" as="geometry" />
        </mxCell>
        <mxCell id="UJRjLYV5v_oAAFYebKkd-22" style="rounded=0;orthogonalLoop=1;jettySize=auto;html=1;entryX=0.5;entryY=0;entryDx=0;entryDy=0;strokeColor=#FFFFFF;" edge="1" parent="1" source="UJRjLYV5v_oAAFYebKkd-11" target="UJRjLYV5v_oAAFYebKkd-19">
          <mxGeometry relative="1" as="geometry" />
        </mxCell>
        <mxCell id="UJRjLYV5v_oAAFYebKkd-11" value="&lt;div&gt;faultStart();&lt;/div&gt;" style="rounded=0;whiteSpace=wrap;html=1;fontSize=10;align=center;glass=0;shadow=0;strokeWidth=2;perimeterSpacing=0;strokeColor=#4C566A;fillColor=none;fontColor=#C9D1D9;verticalAlign=middle;spacingLeft=0;spacingTop=0;fontFamily=Helvetica;" vertex="1" parent="1">
          <mxGeometry x="538" y="257" width="110" height="55" as="geometry" />
        </mxCell>
        <mxCell id="UJRjLYV5v_oAAFYebKkd-15" style="edgeStyle=orthogonalEdgeStyle;rounded=0;orthogonalLoop=1;jettySize=auto;html=1;entryX=0.5;entryY=0;entryDx=0;entryDy=0;strokeColor=#FFFFFF;" edge="1" parent="1" source="UJRjLYV5v_oAAFYebKkd-14" target="UJRjLYV5v_oAAFYebKkd-8">
          <mxGeometry relative="1" as="geometry" />
        </mxCell>
        <mxCell id="UJRjLYV5v_oAAFYebKkd-14" value="&lt;div&gt;EEPROMGetLastStartupError(&amp;amp;lastSystemError);&lt;/div&gt;" style="rounded=0;whiteSpace=wrap;html=1;fontSize=10;align=center;glass=0;shadow=0;strokeWidth=2;perimeterSpacing=0;strokeColor=#4C566A;fillColor=none;fontColor=#C9D1D9;verticalAlign=middle;spacingLeft=0;spacingTop=0;fontFamily=Helvetica;" vertex="1" parent="1">
          <mxGeometry x="403" width="230" height="55" as="geometry" />
        </mxCell>
        <mxCell id="UJRjLYV5v_oAAFYebKkd-18" style="edgeStyle=orthogonalEdgeStyle;rounded=0;orthogonalLoop=1;jettySize=auto;html=1;entryX=0.5;entryY=0;entryDx=0;entryDy=0;strokeColor=#FFFFFF;" edge="1" parent="1" source="UJRjLYV5v_oAAFYebKkd-17" target="UJRjLYV5v_oAAFYebKkd-14">
          <mxGeometry relative="1" as="geometry" />
        </mxCell>
        <mxCell id="UJRjLYV5v_oAAFYebKkd-17" value="&lt;div&gt;EEPROMUpdateBootups(&amp;amp;bootupsCount);&lt;/div&gt;" style="rounded=0;whiteSpace=wrap;html=1;fontSize=10;align=center;glass=0;shadow=0;strokeWidth=2;perimeterSpacing=0;strokeColor=#4C566A;fillColor=none;fontColor=#C9D1D9;verticalAlign=middle;spacingLeft=0;spacingTop=0;fontFamily=Helvetica;" vertex="1" parent="1">
          <mxGeometry x="403" y="-110" width="230" height="55" as="geometry" />
        </mxCell>
        <mxCell id="UJRjLYV5v_oAAFYebKkd-19" value="__stack_ptr=(uint8_t*)SP;" style="rounded=0;whiteSpace=wrap;html=1;fontSize=10;align=center;glass=0;shadow=0;strokeWidth=2;perimeterSpacing=0;strokeColor=#4C566A;fillColor=none;fontColor=#C9D1D9;verticalAlign=middle;spacingLeft=0;spacingTop=0;fontFamily=Helvetica;" vertex="1" parent="1">
          <mxGeometry x="453" y="357" width="130" height="55" as="geometry" />
        </mxCell>
        <mxCell id="UJRjLYV5v_oAAFYebKkd-20" value="vTaskStartScheduler();" style="rounded=0;whiteSpace=wrap;html=1;fontSize=10;align=center;glass=0;shadow=0;strokeWidth=2;perimeterSpacing=0;strokeColor=#4C566A;fillColor=none;fontColor=#C9D1D9;verticalAlign=middle;spacingLeft=0;spacingTop=0;fontFamily=Helvetica;" vertex="1" parent="1">
          <mxGeometry x="453" y="468" width="130" height="55" as="geometry" />
        </mxCell>
        <mxCell id="UJRjLYV5v_oAAFYebKkd-24" style="edgeStyle=orthogonalEdgeStyle;rounded=0;orthogonalLoop=1;jettySize=auto;html=1;entryX=0.5;entryY=0;entryDx=0;entryDy=0;strokeColor=#FFFFFF;" edge="1" parent="1">
          <mxGeometry relative="1" as="geometry">
            <mxPoint x="517.71" y="413" as="sourcePoint" />
            <mxPoint x="517.71" y="468" as="targetPoint" />
          </mxGeometry>
        </mxCell>
        <mxCell id="UJRjLYV5v_oAAFYebKkd-26" value="" style="rounded=0;whiteSpace=wrap;html=1;fillColor=none;strokeColor=#FFFFFF;" vertex="1" parent="1">
          <mxGeometry x="196" y="-151" width="520" height="689" as="geometry" />
        </mxCell>
      </root>
    </mxGraphModel>
  </diagram>
</mxfile>
